HIERARCHY
ROOT hip
{
  OFFSET 0.00112043 5.09927 -9.65472
  CHANNELS 6 Xposition Yposition Zposition Zrotation Xrotation Yrotation
  JOINT abdomen
  {
    OFFSET 0 -1.186 -1.5018
    CHANNELS 3 Zrotation Xrotation Yrotation
    JOINT abdomen2
    {
      OFFSET 0 9.964 0.2134
      CHANNELS 3 Zrotation Xrotation Yrotation
      JOINT chest
      {
        OFFSET 0 13.134 -3.2573
        CHANNELS 3 Zrotation Xrotation Yrotation
        JOINT neck
        {
          OFFSET 0 20.686 -1.6905
          CHANNELS 3 Zrotation Xrotation Yrotation
          JOINT head
          {
            OFFSET 0 7.238 -0.1237
            CHANNELS 3 Zrotation Xrotation Yrotation
            End Site
            {
              OFFSET 0 0 0
            }
          }
        }
        JOINT lCollar
        {
          OFFSET 1.7069 20.075 5.0056
          CHANNELS 3 Zrotation Xrotation Yrotation
          JOINT lShldr
          {
            OFFSET 13.6458 -0.047 -4.849
            CHANNELS 3 Zrotation Xrotation Yrotation
            JOINT lForeArm
            {
              OFFSET 28.3255 -0.9759 2.2888
              CHANNELS 3 Zrotation Xrotation Yrotation
              JOINT lHand
              {
                OFFSET 22.1583 -0.53 10.8316
                CHANNELS 3 Zrotation Xrotation Yrotation
                JOINT lThumb1
                {
                  OFFSET 0.786 0.112 2.5817
                  CHANNELS 3 Zrotation Xrotation Yrotation
                  JOINT lThumb2
                  {
                    OFFSET 0.3601 -0.878 4.2331
                    CHANNELS 3 Zrotation Xrotation Yrotation
                    JOINT lThumb2_End
                    {
                      OFFSET 1.8127 -1.216 2.2227
                      CHANNELS 3 Zrotation Xrotation Yrotation
                      End Site
                      {
                        OFFSET 0.0181 -0.0122 0.0222
                      }
                    }
                  }
                }
                JOINT lCarpal1
                {
                  OFFSET 0.9571 1.114 1.7695
                  CHANNELS 3 Zrotation Xrotation Yrotation
                  JOINT lIndex1
                  {
                    OFFSET 4.1246 0.487 4.1451
                    CHANNELS 3 Zrotation Xrotation Yrotation
                    JOINT lIndex2
                    {
                      OFFSET 3.4052 -1.454 2.7682
                      CHANNELS 3 Zrotation Xrotation Yrotation
                      JOINT lIndex2_End
                      {
                        OFFSET 1.4531 -1.795 1.2713
                        CHANNELS 3 Zrotation Xrotation Yrotation
                        End Site
                        {
                          OFFSET 0.0145 -0.0179 0.0127
                        }
                      }
                    }
                  }
                  JOINT lMid1
                  {
                    OFFSET 5.6954 0.21 2.1184
                    CHANNELS 3 Zrotation Xrotation Yrotation
                    JOINT lMid2
                    {
                      OFFSET 3.9766 -1.54 2.3863
                      CHANNELS 3 Zrotation Xrotation Yrotation
                      JOINT lMid2_End
                      {
                        OFFSET 1.4042 -1.926 1.125
                        CHANNELS 3 Zrotation Xrotation Yrotation
                        End Site
                        {
                          OFFSET 0.014 -0.0193 0.0113
                        }
                      }
                    }
                  }
                }
                JOINT lCarpal2
                {
                  OFFSET 2.0956 0.66 -0.3894
                  CHANNELS 3 Zrotation Xrotation Yrotation
                  JOINT lRing1
                  {
                    OFFSET 5.0395 -0.09 2.4971
                    CHANNELS 3 Zrotation Xrotation Yrotation
                    JOINT lRing2
                    {
                      OFFSET 3.7921 -1.552 1.4806
                      CHANNELS 3 Zrotation Xrotation Yrotation
                      JOINT lRing2_End
                      {
                        OFFSET 1.4655 -1.808 0.9609
                        CHANNELS 3 Zrotation Xrotation Yrotation
                        End Site
                        {
                          OFFSET 0.0147 -0.0181 0.0096
                        }
                      }
                    }
                  }
                  JOINT lPinky1
                  {
                    OFFSET 4.9141 -1.269 0.3591
                    CHANNELS 3 Zrotation Xrotation Yrotation
                    JOINT lPinky2
                    {
                      OFFSET 3.1477 -1.685 0.8462
                      CHANNELS 3 Zrotation Xrotation Yrotation
                      JOINT lPinky2_End
                      {
                        OFFSET 0.8055 -1.585 0.7955
                        CHANNELS 3 Zrotation Xrotation Yrotation
                        End Site
                        {
                          OFFSET 0.0081 -0.0158 0.008
                        }
                      }
                    }
                  }
                }
              }
            }
          }
        }
        JOINT rCollar
        {
          OFFSET -1.7069 20.075 5.0056
          CHANNELS 3 Zrotation Xrotation Yrotation
          JOINT rShldr
          {
            OFFSET -13.6458 -0.047 -4.849
            CHANNELS 3 Zrotation Xrotation Yrotation
            JOINT rForeArm
            {
              OFFSET -28.3255 -0.9759 2.2888
              CHANNELS 3 Zrotation Xrotation Yrotation
              JOINT rHand
              {
                OFFSET -22.1583 -0.53 10.8316
                CHANNELS 3 Zrotation Xrotation Yrotation
                JOINT rThumb1
                {
                  OFFSET -0.786 0.112 2.5817
                  CHANNELS 3 Zrotation Xrotation Yrotation
                  JOINT rThumb2
                  {
                    OFFSET -0.3601 -0.878 4.2331
                    CHANNELS 3 Zrotation Xrotation Yrotation
                    JOINT rThumb2_End
                    {
                      OFFSET -1.8127 -1.216 2.2227
                      CHANNELS 3 Zrotation Xrotation Yrotation
                      End Site
                      {
                        OFFSET -0.0181 -0.0122 0.0222
                      }
                    }
                  }
                }
                JOINT rCarpal1
                {
                  OFFSET -0.9571 1.114 1.7695
                  CHANNELS 3 Zrotation Xrotation Yrotation
                  JOINT rIndex1
                  {
                    OFFSET -4.1246 0.487 4.1451
                    CHANNELS 3 Zrotation Xrotation Yrotation
                    JOINT rIndex2
                    {
                      OFFSET -3.4052 -1.454 2.7682
                      CHANNELS 3 Zrotation Xrotation Yrotation
                      JOINT rIndex2_End
                      {
                        OFFSET -1.4531 -1.795 1.2713
                        CHANNELS 3 Zrotation Xrotation Yrotation
                        End Site
                        {
                          OFFSET -0.0145 -0.018 0.0127
                        }
                      }
                    }
                  }
                  JOINT rMid1
                  {
                    OFFSET -5.6954 0.21 2.1184
                    CHANNELS 3 Zrotation Xrotation Yrotation
                    JOINT rMid2
                    {
                      OFFSET -3.9766 -1.54 2.3863
                      CHANNELS 3 Zrotation Xrotation Yrotation
                      JOINT rMid2_End
                      {
                        OFFSET -1.4042 -1.926 1.125
                        CHANNELS 3 Zrotation Xrotation Yrotation
                        End Site
                        {
                          OFFSET -0.014 -0.0193 0.0113
                        }
                      }
                    }
                  }
                }
                JOINT rCarpal2
                {
                  OFFSET -2.0956 0.66 -0.3894
                  CHANNELS 3 Zrotation Xrotation Yrotation
                  JOINT rRing1
                  {
                    OFFSET -5.0395 -0.09 2.4971
                    CHANNELS 3 Zrotation Xrotation Yrotation
                    JOINT rRing2
                    {
                      OFFSET -3.7921 -1.552 1.4806
                      CHANNELS 3 Zrotation Xrotation Yrotation
                      JOINT rRing2_End
                      {
                        OFFSET -1.4655 -1.808 0.9609
                        CHANNELS 3 Zrotation Xrotation Yrotation
                        End Site
                        {
                          OFFSET -0.0147 -0.0181 0.0096
                        }
                      }
                    }
                  }
                  JOINT rPinky1
                  {
                    OFFSET -4.9141 -1.269 0.3592
                    CHANNELS 3 Zrotation Xrotation Yrotation
                    JOINT rPinky2
                    {
                      OFFSET -3.1477 -1.685 0.8462
                      CHANNELS 3 Zrotation Xrotation Yrotation
                      JOINT rPinky2_End
                      {
                        OFFSET -0.8055 -1.585 0.7955
                        CHANNELS 3 Zrotation Xrotation Yrotation
                        End Site
                        {
                          OFFSET -0.0081 -0.0158 0.008
                        }
                      }
                    }
                  }
                }
              }
            }
          }
        }
      }
    }
  }
  JOINT lThigh
  {
    OFFSET 8.367 -8.2066 0.5982
    CHANNELS 3 Zrotation Xrotation Yrotation
    JOINT lShin
    {
      OFFSET 2.1923 -43.463 -0.4932
      CHANNELS 3 Zrotation Xrotation Yrotation
      JOINT lFoot
      {
        OFFSET 0.7333 -45.8593 -2.6451
        CHANNELS 3 Zrotation Xrotation Yrotation
        End Site
        {
          OFFSET 2.6618 -4.2699 12.3931
        }
      }
    }
  }
  JOINT rThigh
  {
    OFFSET -8.367 -8.2066 0.5982
    CHANNELS 3 Zrotation Xrotation Yrotation
    JOINT rShin
    {
      OFFSET -2.1923 -43.463 -0.4931
      CHANNELS 3 Zrotation Xrotation Yrotation
      JOINT rFoot
      {
        OFFSET -0.7333 -45.8593 -2.6451
        CHANNELS 3 Zrotation Xrotation Yrotation
        End Site
        {
          OFFSET -2.6618 -4.2699 12.3931
        }
      }
    }
  }
}
MOTION
Frames:	6
Frame Time:	0.0333333
-0.503677 83.5961 9.25357 -0 -0.97489 -0 -0.644063 2.04507 -0.215433 -1.28165 4.09241 -0.408224 -1.28165 4.09241 -0.408224 7.10912 9.27713 -1.19725 -3.49403e-007 11.1082 -1.8539e-008 4.66115 3.09157 -5.26419 -51.313 -1.61959 -9.02029 -15.9162 28.8211 -52.8809 -7.94163 2.4447 7.05464 -4.24057e-007 5.12754e-007 5.25994e-007 -4.24057e-007 5.12754e-007 5.25994e-007 -6.36111e-015 0 -4.77083e-015 6.36111e-015 3.18055e-015 4.77083e-015 -4.24057e-007 5.12754e-007 5.25994e-007 -4.24057e-007 5.12754e-007 5.25994e-007 3.18055e-015 -3.18055e-015 -0 -4.24057e-007 5.12754e-007 5.25994e-007 -4.24057e-007 5.12754e-007 5.25994e-007 3.18055e-015 -3.18055e-015 -0 6.36111e-015 3.18055e-015 4.77083e-015 -4.24057e-007 5.12754e-007 5.25994e-007 -4.24057e-007 5.12754e-007 5.25994e-007 3.18055e-015 -3.18055e-015 -0 -4.24057e-007 5.12754e-007 5.25994e-007 -4.24057e-007 5.12754e-007 5.25994e-007 3.18055e-015 -3.18055e-015 -0 -4.92046 2.81016 4.99334 51.2609 -1.70485 9.88133 15.0366 26.9521 51.5742 9.00391 3.27478 -6.39962 -3.18055e-015 6.36111e-015 3.18055e-015 -2.64834e-031 9.54166e-015 1.59028e-015 -3.53113e-031 6.36111e-015 3.18055e-015 -3.18055e-015 -3.18055e-015 3.18055e-015 -3.18055e-015 6.36111e-015 -0 0 0 -0 3.18055e-015 -3.18055e-015 3.18055e-015 -3.18055e-015 6.36111e-015 -0 0 0 -0 3.18055e-015 -3.18055e-015 3.18055e-015 -3.18055e-015 -3.18055e-015 3.18055e-015 -3.18055e-015 6.36111e-015 -0 0 0 -0 3.18055e-015 -3.18055e-015 3.18055e-015 -3.18055e-015 6.36111e-015 -0 0 0 -0 3.18055e-015 -3.18055e-015 3.18055e-015 21.0436 -28.0384 35.4166 131.167 54.2849 -130.946 -5.78842 39.1875 -13.5205 -24.5799 -29.7327 -36.3158 -130.995 54.3919 130.843 7.55874 38.2114 13.9228 
-0.503138 83.5917 9.10174 -0 -0.448445 -0 -0.643498 1.86116 -0.217333 -1.28093 3.72464 -0.414055 -1.28094 3.72464 -0.414055 7.14528 9.32288 -1.20616 8.71784e-007 11.1631 -6.08054e-007 4.59526 3.47612 -5.17457 -51.313 -1.61961 -9.02028 -15.9398 28.8973 -53.076 -7.91204 2.56337 7.17358 6.36111e-015 1.27222e-014 1.59028e-014 3.18055e-015 2.22639e-014 1.74931e-014 6.36111e-015 1.27222e-014 1.59028e-014 3.18055e-015 3.18055e-015 1.59028e-015 3.18055e-015 1.27222e-014 1.74931e-014 3.18055e-015 1.59028e-014 1.27222e-014 3.18055e-015 1.90833e-014 1.90833e-014 3.18055e-015 1.27222e-014 1.74931e-014 3.18055e-015 1.59028e-014 1.27222e-014 3.18055e-015 1.90833e-014 1.90833e-014 3.18055e-015 3.18055e-015 1.59028e-015 3.18055e-015 1.27222e-014 1.74931e-014 3.18055e-015 1.59028e-014 1.27222e-014 3.18055e-015 1.90833e-014 1.90833e-014 3.18055e-015 1.27222e-014 1.74931e-014 3.18055e-015 1.59028e-014 1.27222e-014 3.18055e-015 1.90833e-014 1.90833e-014 -4.85905 3.18986 4.89181 51.2609 -1.70485 9.88132 15.0651 27.0199 51.7574 8.99592 3.40313 -6.49975 -6.36111e-015 6.36111e-015 -0 -6.36111e-015 -3.18055e-015 1.59028e-015 -3.18055e-015 -6.36111e-015 1.59028e-015 -3.18055e-015 3.18055e-015 -1.59028e-015 0 3.18055e-015 -0 -3.18055e-015 0 1.59028e-015 -3.18055e-015 -6.36111e-015 -1.59028e-015 0 3.18055e-015 -0 -3.18055e-015 0 1.59028e-015 -3.18055e-015 -6.36111e-015 -1.59028e-015 -3.18055e-015 3.18055e-015 -1.59028e-015 0 3.18055e-015 -0 -3.18055e-015 0 1.59028e-015 -3.18055e-015 -6.36111e-015 -1.59028e-015 0 3.18055e-015 -0 -3.18055e-015 0 1.59028e-015 -3.18055e-015 -6.36111e-015 -1.59028e-015 20.9582 -28.8793 35.4875 131.43 54.1488 -131.122 -6.06174 39.277 -13.3442 -24.5037 -30.5636 -36.4036 -131.246 54.2632 131.009 7.85293 38.3009 13.7297 
-0.502622 83.5868 8.94962 0 0.077954 -0 -0.642866 1.67736 -0.21921 -1.28013 3.35706 -0.419839 -1.28013 3.35706 -0.419839 7.18108 9.36796 -1.21511 2.7787e-008 11.2179 -3.25279e-007 4.52869 3.8607 -5.0845 -51.313 -1.6196 -9.02029 -15.9632 28.9736 -53.2711 -7.8829 2.68218 7.2925 4.66646e-006 -3.9019e-006 4.40187e-006 4.2543e-007 -5.1232e-007 -5.25423e-007 3.74842e-006 -1.31226e-006 4.3487e-006 6.36111e-015 -6.36111e-015 -1.59028e-015 4.66646e-006 -3.9019e-006 4.40187e-006 4.2543e-007 -5.1232e-007 -5.25423e-007 3.74842e-006 -1.31226e-006 4.3487e-006 4.66646e-006 -3.9019e-006 4.40187e-006 4.2543e-007 -5.1232e-007 -5.25423e-007 3.74842e-006 -1.31226e-006 4.3487e-006 6.36111e-015 -6.36111e-015 -1.59028e-015 4.66646e-006 -3.9019e-006 4.40187e-006 4.2543e-007 -5.1232e-007 -5.25423e-007 3.74842e-006 -1.31226e-006 4.3487e-006 4.66646e-006 -3.9019e-006 4.40187e-006 4.2543e-007 -5.1232e-007 -5.25423e-007 3.74842e-006 -1.31226e-006 4.3487e-006 -4.797 3.56959 4.78984 51.2609 -1.70485 9.88132 15.0935 27.0877 51.9406 8.98811 3.53153 -6.59989 8.25143e-007 1.112e-006 -9.73688e-007 2.64834e-031 -9.54166e-015 1.59028e-015 -8.82781e-032 -3.18055e-015 -1.59028e-015 9.54166e-015 3.18055e-015 -0 8.25143e-007 1.112e-006 -9.73688e-007 2.64834e-031 -9.54166e-015 1.59028e-015 -0 0 4.77083e-015 8.25143e-007 1.112e-006 -9.73688e-007 2.64834e-031 -9.54166e-015 1.59028e-015 -0 0 4.77083e-015 9.54166e-015 3.18055e-015 -0 8.25143e-007 1.112e-006 -9.73688e-007 2.64834e-031 -9.54166e-015 1.59028e-015 -0 0 4.77083e-015 8.25143e-007 1.112e-006 -9.73688e-007 2.64834e-031 -9.54166e-015 1.59028e-015 -0 0 4.77083e-015 20.8731 -29.7202 35.5573 131.692 54.0122 -131.295 -6.33611 39.3663 -13.167 -24.428 -31.3951 -36.4904 -131.497 54.1338 131.173 8.1482 38.3901 13.5357 
-0.502127 83.5814 8.79721 0 0.604288 -0 -0.642189 1.49374 -0.221066 -1.27926 2.98985 -0.425581 -1.27926 2.98985 -0.425581 7.21712 9.41342 -1.2241 -4.45885e-007 11.2728 -5.29182e-008 4.4615 4.24511 -4.99393 -51.313 -1.6196 -9.02029 -15.9863 29.0499 -53.4664 -7.85424 2.80111 7.41138 8.52229e-007 -1.0242e-006 -1.05028e-006 -4.26115e-007 5.12099e-007 5.25139e-007 5.05334e-006 -1.79732e-006 2.35864e-006 6.36111e-015 -9.54166e-015 -6.36111e-015 8.52229e-007 -1.0242e-006 -1.05028e-006 -4.26115e-007 5.12099e-007 5.25139e-007 5.05334e-006 -1.79732e-006 2.35864e-006 8.52229e-007 -1.0242e-006 -1.05028e-006 -4.26115e-007 5.12099e-007 5.25139e-007 5.05334e-006 -1.79732e-006 2.35864e-006 6.36111e-015 -9.54166e-015 -6.36111e-015 8.52229e-007 -1.0242e-006 -1.05028e-006 -4.26115e-007 5.12099e-007 5.25139e-007 5.05334e-006 -1.79732e-006 2.35864e-006 8.52229e-007 -1.0242e-006 -1.05028e-006 -4.26115e-007 5.12099e-007 5.25139e-007 5.05334e-006 -1.79732e-006 2.35864e-006 -4.73425 3.94913 4.68741 51.2609 -1.70485 9.88133 15.1217 27.1556 52.1239 8.9806 3.65991 -6.69999 -3.18055e-015 0 -6.36111e-015 -3.18055e-015 -6.36111e-015 1.59028e-015 8.26559e-007 1.11146e-006 -9.73235e-007 -3.53113e-031 -3.18055e-015 -6.36111e-015 -9.54166e-015 0 -1.59028e-015 -9.54166e-015 0 -0 8.26559e-007 1.11146e-006 -9.73235e-007 -9.54166e-015 0 -1.59028e-015 -9.54166e-015 0 -0 8.26559e-007 1.11146e-006 -9.73235e-007 -3.53113e-031 -3.18055e-015 -6.36111e-015 -9.54166e-015 0 -1.59028e-015 -9.54166e-015 0 -0 8.26559e-007 1.11146e-006 -9.73235e-007 -9.54166e-015 0 -1.59028e-015 -9.54166e-015 0 -0 8.26559e-007 1.11146e-006 -9.73235e-007 20.7882 -30.5612 35.6258 131.951 53.8751 -131.467 -6.61154 39.4554 -12.989 -24.3529 -32.2264 -36.5764 -131.745 54.0041 131.336 8.44454 38.4788 13.3407 
-0.501655 83.5756 8.6445 0 1.13053 -0 -0.641456 1.31035 -0.222901 -1.27831 2.62317 -0.431281 -1.27831 2.62316 -0.431281 7.25332 9.45932 -1.23313 1.73235e-006 11.3277 -5.40695e-007 4.3937 4.6293 -4.90286 -51.313 -1.61959 -9.02029 -16.0091 29.1264 -53.6618 -7.82605 2.9202 7.53023 -4.26797e-007 5.11876e-007 5.24858e-007 3.18055e-015 0 -1.59028e-015 4.26797e-007 -5.11876e-007 -5.24858e-007 3.18055e-015 3.18055e-015 -0 -4.26797e-007 5.11876e-007 5.24858e-007 0 0 -1.59028e-015 4.26797e-007 -5.11876e-007 -5.24858e-007 -4.26797e-007 5.11876e-007 5.24858e-007 0 0 -1.59028e-015 4.26797e-007 -5.11876e-007 -5.24858e-007 3.18055e-015 3.18055e-015 -0 -4.26797e-007 5.11876e-007 5.24858e-007 0 0 -1.59028e-015 4.26797e-007 -5.11876e-007 -5.24858e-007 -4.26797e-007 5.11876e-007 5.24858e-007 0 0 -1.59028e-015 4.26797e-007 -5.11876e-007 -5.24858e-007 -4.67076 4.32846 4.58453 51.2609 -1.70485 9.88132 15.1496 27.2237 52.3073 8.97326 3.78831 -6.80012 -2.64834e-031 9.54166e-015 1.59028e-015 8.27972e-007 1.1109e-006 -9.72792e-007 -3.18055e-015 0 -0 -3.18055e-015 1.27222e-014 1.59028e-015 3.18055e-015 -1.27222e-014 4.77083e-015 8.27972e-007 1.1109e-006 -9.72792e-007 -1.32417e-030 -9.54166e-015 -7.95139e-015 3.18055e-015 -1.27222e-014 4.77083e-015 8.27972e-007 1.1109e-006 -9.72792e-007 -1.32417e-030 -9.54166e-015 -7.95139e-015 -3.18055e-015 1.27222e-014 1.59028e-015 3.18055e-015 -1.27222e-014 4.77083e-015 8.27972e-007 1.1109e-006 -9.72792e-007 -1.32417e-030 -9.54166e-015 -7.95139e-015 3.18055e-015 -1.27222e-014 4.77083e-015 8.27972e-007 1.1109e-006 -9.72792e-007 -1.32417e-030 -9.54166e-015 -7.95139e-015 20.7033 -31.4025 35.6931 132.209 53.7375 -131.637 -6.88805 39.5442 -12.8101 -24.2786 -33.0576 -36.6616 -131.991 53.8741 131.496 8.74197 38.5672 13.1448 
-0.501204 83.5692 8.49152 0 1.65666 -0 -0.640666 1.12731 -0.224717 -1.27728 2.2571 -0.436939 -1.27727 2.2571 -0.436938 7.28925 9.50387 -1.24212 -5.47289e-007 11.3825 -4.83997e-007 4.32528 5.0133 -4.81128 -51.313 -1.6196 -9.02029 -16.0317 29.2029 -53.8572 -7.79836 3.03945 7.64901 -3.18055e-015 -3.18055e-015 -6.36111e-015 -3.18055e-015 -9.54166e-015 -1.59028e-015 4.27475e-007 -5.11651e-007 -5.2458e-007 -3.18055e-015 6.36111e-015 -6.36111e-015 2.64834e-031 -9.54166e-015 1.59028e-015 -9.54166e-015 3.18055e-015 -4.77083e-015 4.27475e-007 -5.11651e-007 -5.2458e-007 2.64834e-031 -9.54166e-015 1.59028e-015 -9.54166e-015 3.18055e-015 -4.77083e-015 4.27475e-007 -5.11651e-007 -5.2458e-007 -3.18055e-015 6.36111e-015 -6.36111e-015 2.64834e-031 -9.54166e-015 1.59028e-015 -9.54166e-015 3.18055e-015 -4.77083e-015 4.27475e-007 -5.11651e-007 -5.2458e-007 2.64834e-031 -9.54166e-015 1.59028e-015 -9.54166e-015 3.18055e-015 -4.77083e-015 4.27475e-007 -5.11651e-007 -5.2458e-007 -4.60654 4.70758 4.4812 51.2609 -1.70485 9.88133 15.1772 27.2917 52.4907 8.96619 3.91671 -6.90022 0 0 -6.36111e-015 -6.36111e-015 6.36111e-015 1.59028e-015 8.29381e-007 1.11034e-006 -9.72363e-007 3.18055e-015 0 -4.77083e-015 -0 -3.18055e-015 -0 -6.36111e-015 3.18055e-015 3.18055e-015 8.29381e-007 1.11034e-006 -9.72363e-007 -0 -3.18055e-015 -0 -6.36111e-015 3.18055e-015 3.18055e-015 8.29381e-007 1.11034e-006 -9.72363e-007 3.18055e-015 0 -4.77083e-015 -0 -3.18055e-015 -0 -6.36111e-015 3.18055e-015 3.18055e-015 8.29381e-007 1.11034e-006 -9.72363e-007 -0 -3.18055e-015 -0 -6.36111e-015 3.18055e-015 3.18055e-015 8.29381e-007 1.11034e-006 -9.72363e-007 20.6187 -32.2434 35.7592 132.464 53.5994 -131.805 -7.16562 39.6328 -12.6302 -24.2046 -33.8889 -36.7459 -132.236 53.7435 131.655 9.04049 38.6551 12.948 
